<?xml version="1.0" encoding="utf-8"?>
<!-- Generator: Adobe Illustrator 21.0.0, SVG Export Plug-In . SVG Version: 6.00 Build 0)  -->
<svg version="1.1" id="Capa_1" xmlns="http://www.w3.org/2000/svg" xmlns:xlink="http://www.w3.org/1999/xlink" x="0px" y="0px"
	 viewBox="0 0 883.5 999" style="enable-background:new 0 0 883.5 999;" xml:space="preserve">
<style type="text/css">
	.st0{fill:#F6E558;}
	.st1{fill:#FFFFFF;stroke:#000000;stroke-width:5.6058;stroke-miterlimit:10;}
	.st2{fill:none;stroke:#000000;stroke-width:5.6058;stroke-miterlimit:10;}
	.st3{fill:#FF4848;stroke:#000000;stroke-width:5.6058;stroke-miterlimit:10;}
	.st4{fill:#FF4848;}
	.st5{fill:#FFFFFF;stroke:#000000;stroke-width:4.2175;stroke-miterlimit:10;}
	.st6{fill:#F6E558;stroke:#000000;stroke-width:4.2175;stroke-miterlimit:10;}
	.st7{fill:#FF4848;stroke:#000000;stroke-width:4.2175;stroke-miterlimit:10;}
	.st8{fill:#FF4848;stroke:#000000;stroke-width:3.85;stroke-miterlimit:10;}
	.st9{fill:#FFFFFF;}
	.st10{stroke:#000000;stroke-width:1.3667;}
</style>
<path class="st0" d="M483.9,129.9c-19.7-5-34.1,0.7-56.9-11.3c-22.8-12-39.7-31.9-57.1-50.4s-37.1-36.7-62.2-43.4
	C266,13.6,215.2,41.4,200.8,83.3c-11.5,33.5-1.4,68.6,4.3,102.4s4.8,74-21.8,98.6c-30.3,27.9-79.6,22.1-111.7,47.8
	C38.5,358.6,37.2,409.6,57,443.9s54.9,56.5,88,78.6c43.3,28.9,87.2,62.4,105.4,111.3c11,29.5,11.6,62.5,21,92.6
	c20.4,65.3,79.5,110.1,142.5,137.4c32.3,14,66.8,24.6,95.5,44.6c23.3,16.2,42.4,38.3,68.2,50.6c50.7,24.2,124.9-2.9,145.3-57.7
	c11.4-30.4,6.3-63.4-3.5-92.9c-6.9-20.8-14.7-47.3,2.5-63c11.1-10.1,27.2-10,41.8-12.2c45.7-7.2,86.3-46.7,94.3-91.8
	c7.9-45.1-17.5-91.7-59.1-108.2c-24.1-9.6-52.2-9.8-74.7-22.4c-24.3-13.6-38.5-39.8-45-66.8c-6.5-27.1-6.7-55.7-8.9-83.8
	c-4.4-55.6-18.2-111.1-50-155.4c-31.9-44.3-83.7-76.1-140.6-74.9"/>
<g>
	<polygon class="st1" points="503,214.8 421.2,164.4 312.4,341.5 432.4,454.7 621.8,400.9 804.6,449.1 726.1,196.9 615.1,177.8 	"/>
	<line class="st1" x1="502.4" y1="214.3" x2="431.8" y2="454.2"/>
	<line class="st1" x1="615.1" y1="177.8" x2="621.8" y2="400.9"/>
	<polyline class="st2" points="348.1,283 484.1,274 612.3,204.2 697.9,192.6 	"/>
	<polyline class="st2" points="390,416.1 452.7,385.4 618.7,283.8 748.7,265.1 	"/>
	<polyline class="st2" points="384.2,220.4 470.7,321.9 619.4,321.9 789.8,400.4 	"/>
</g>
<g>
	<path class="st3" d="M555.9,285.5c-3.5-4.1-6.9-7.8-10-11.8c-13.4-17.5-24.9-36-33.5-56.4c-2.5-5.9-4.7-12-5.5-18.4
		c-1.2-9.3,0.4-18.3,4.8-26.6c9.9-18.7,25.6-28.1,46.8-27.6c24.1,0.6,44.5,20.1,47.1,44c0.9,8.6-1.1,16.5-4,24.4
		c-3.9,10.5-9.1,20.5-14.8,30.2c-7.7,13.1-16.1,25.7-26.1,37.2C559.2,282.1,557.7,283.6,555.9,285.5z M591,194.3
		c0-19.2-15.6-34.8-34.9-34.8c-19.2,0-34.8,15.7-34.8,34.8c0,19.2,15.7,34.8,34.9,34.8C575.3,229.2,591,213.5,591,194.3z"/>
</g>
<g>
	<g>
		<rect x="221.3" y="450.9" class="st4" width="255.6" height="255.6"/>
		<path d="M218.5,448v261.3h259.1l2.2-1V448H218.5z M224.2,453.8H474v249.8H224.2V453.8z"/>
	</g>
	<g>
		<path class="st4" d="M555.1,670.2l-78.2,36.2V450.9l78.2-26.7c0,0,0,0,0,0V670.2z"/>
		<path d="M558,420.5l-2.4,0.6l-79.1,27l-2.4,0.8v260.5h3.5l2.2-1l78.2-36.2V424.2L558,420.5z M479.8,453l72.5-24.7v240.2L479.8,702
			V453z"/>
	</g>
	<g>
		<path class="st4" d="M221.4,450.4l253.8,0.7l77.9-27.9c0,0,0,0,0,0H314.3L221.4,450.4C221.4,450.4,221.4,450.4,221.4,450.4z"/>
		<path d="M475.7,454l-256.8-0.7l-0.7-5l2.4-0.7l93.2-27.3H558l-1.6,4.8L475.7,454z M241.1,447.6l233.6,0.7l62-22.2h-222
			L241.1,447.6z"/>
	</g>
	<g>
		<polygon class="st0" points="397.3,423.2 333.6,450.1 333.6,543.4 390.8,543.4 391,451.9 461.6,423.6 		"/>
		<path d="M393.7,546.3h-62.9v-98.1l65.9-27.8l79.6,0.4l-82.5,33L393.7,546.3z M336.5,540.5H388l0.1-90.6l58.9-23.5l-49.1-0.3
			L336.5,452V540.5z"/>
	</g>
	<g>
		<line class="st4" x1="333.8" y1="450.8" x2="413.9" y2="450.8"/>
		<rect x="333.8" y="447.9" width="80.1" height="5.7"/>
	</g>
</g>
<g>
	<path class="st5" d="M315.8,760.1H168.7c-7,0-12.7-5.7-12.7-12.7v-67c0-7,5.7-12.7,12.7-12.7h147.1c7,0,12.7,5.7,12.7,12.7v67
		C328.5,754.4,322.8,760.1,315.8,760.1z"/>
	<rect x="156.6" y="687.4" class="st6" width="171.9" height="25.8"/>
	<path class="st7" d="M226.2,731.5h-56.4c-2.3,0-4.2-1.9-4.2-4.2v0c0-2.3,1.9-4.2,4.2-4.2h56.4c2.3,0,4.2,1.9,4.2,4.2v0
		C230.4,729.6,228.5,731.5,226.2,731.5z"/>
	<path class="st8" d="M202.4,747.3h-33.6c-1.8,0-3.2-1.4-3.2-3.2v-1.5c0-1.8,1.4-3.2,3.2-3.2h33.6c1.8,0,3.2,1.4,3.2,3.2v1.5
		C205.6,745.9,204.2,747.3,202.4,747.3z"/>
	<circle class="st8" cx="285.1" cy="738.4" r="12.3"/>
	<circle class="st8" cx="303.9" cy="738.4" r="12.3"/>
</g>
<g>
	<path d="M179.5,590.5H69.7c-2.1,0-3.8-1.7-3.8-3.8v-1c0-2.1,1.7-3.8,3.8-3.8h109.8c2.1,0,3.8,1.7,3.8,3.8v1
		C183.3,588.8,181.6,590.5,179.5,590.5z"/>
	<path d="M180,617.8H97.7c-1.8,0-3.3-1.5-3.3-3.3v-2c0-1.8,1.5-3.3,3.3-3.3H180c1.8,0,3.3,1.5,3.3,3.3v2
		C183.3,616.4,181.8,617.8,180,617.8z"/>
	<path d="M180.5,644.6h-57.8c-1.5,0-2.8-1.3-2.8-2.8v-3c0-1.5,1.3-2.8,2.8-2.8h57.8c1.5,0,2.8,1.3,2.8,2.8v3
		C183.3,643.4,182.1,644.6,180.5,644.6z"/>
</g>
<g>
	<g>
		<circle class="st9" cx="640.7" cy="629.7" r="70.4"/>
		<path d="M640.7,703.7c-40.9,0-74.1-33.2-74.1-74.1c0-40.9,33.2-74.1,74.1-74.1s74.1,33.2,74.1,74.1
			C714.7,670.6,681.5,703.7,640.7,703.7z M640.7,562.8c-36.9,0-66.8,29.9-66.8,66.8c0,36.9,29.9,66.8,66.8,66.8s66.8-29.9,66.8-66.8
			C707.5,592.8,677.6,562.8,640.7,562.8L640.7,562.8z"/>
	</g>
	<g>
		<path class="st10" d="M610.2,644.1h-22.4v-4.6c11-5.3,15-9.6,15-14.5c0-3.1-1.8-4.7-4.6-4.7c-2.6,0-4.5,1.7-4.9,5.5l-5.6-1.3
			c0.9-6.8,5.7-9.4,11.2-9.4s10.2,2.9,10.2,9.5c0,7.3-6.1,12.1-13.4,14.2v0.2h14.6V644.1z"/>
		<path class="st10" d="M630.2,641.7h-16.7v-4.1l16.9-21.8h5.9V637h5.8v4.7h-5.8v10h-6.1V641.7z M630.2,637V629
			c0-3.6,0.2-6.3,0.2-6.3h-0.2c0,0-1,2-3.1,4.8l-4.4,5.9c-1.8,2.4-3.3,3.6-3.3,3.6v0.2c0,0,1.2-0.2,4.3-0.2H630.2z"/>
		<path class="st10" d="M661.1,604.8h5.5L650.4,656H645L661.1,604.8z"/>
		<path class="st10" d="M673.9,621.2v4.3h-5.3v-9.8h23.6v4.3l-12.8,31.7h-6.1l12.4-30.6H673.9z"/>
	</g>
</g>
<g>
	<circle class="st9" cx="559.6" cy="717.9" r="70.4"/>
	<path d="M559.6,792c-40.9,0-74.1-33.2-74.1-74.1s33.2-74.1,74.1-74.1s74.1,33.2,74.1,74.1C633.7,758.8,600.5,791.9,559.6,792z
		 M559.6,651.1c-36.9,0-66.8,29.9-66.8,66.8c0,36.9,29.9,66.8,66.8,66.8s66.8-29.9,66.8-66.8C626.5,681,596.6,651,559.6,651.1
		L559.6,651.1z"/>
	<path d="M551.2,678.7v49.1c0,2.2,1.8,4,4.1,4.1h40.9c5.3,0,5.3-8.2,0-8.2h-40.9l4.1,4.1v-49.1C559.4,673.5,551.2,673.5,551.2,678.7
		z"/>
</g>
<g>
	<g>
		<path class="st9" d="M233,359.6c14.2,0,25.8,11.5,25.8,25.8v82.3v24.1c0,10-13,14-18.6,5.7L220,467.6h-99.2
			c-14.2,0-25.8-11.5-25.8-25.8v-56.5c0-14.2,11.5-25.8,25.8-25.8H233z"/>
		<path d="M238,498.9l-19.5-28.7h-97.8c-15.7,0-28.4-12.7-28.4-28.4v-56.5c0-15.7,12.7-28.4,28.4-28.4H233
			c15.7,0,28.4,12.7,28.4,28.4v106.4c0,5.7-3.5,10.5-9,12.2c-1.3,0.4-2.6,0.6-3.9,0.6C244.4,504.6,240.5,502.5,238,498.9z
			 M120.7,362.2c-12.8,0-23.2,10.4-23.2,23.2v56.5c0,12.8,10.4,23.2,23.2,23.2h100.6l21,31c2.3,3.4,5.9,3.8,8.5,3
			c2.6-0.8,5.3-3.1,5.3-7.2V385.4c0-12.8-10.4-23.2-23.2-23.2H120.7z"/>
	</g>
	<rect x="123.9" y="441.5" transform="matrix(-1 -4.489843e-11 4.489843e-11 -1 359.3989 888.8316)" width="111.6" height="5.8"/>
	<rect x="123.9" y="427.4" transform="matrix(-1 -4.489843e-11 4.489843e-11 -1 359.3989 860.585)" width="111.6" height="5.8"/>
	<g>
		
			<rect x="124.6" y="379" transform="matrix(-1 -4.489266e-11 4.489266e-11 -1 359.88 793.1634)" class="st9" width="110.6" height="35.2"/>
		<path d="M122,376.4h115.9v40.5H122V376.4z M232.6,381.6H127.2v30h105.4V381.6z"/>
	</g>
	<g>
		<path d="M208.5,397.2l-5.3-8.6h5.2l2.9,5.2l3-5.2h5l-5.2,8.2l5.6,8.6h-5.1l-3.2-5.3l-3.3,5.3h-5.3L208.5,397.2z"/>
		<path d="M187,397.2l-5.3-8.6h5.2l2.9,5.2l3-5.2h5l-5.2,8.2l5.6,8.6h-5.1l-3.2-5.3l-3.3,5.3h-5.3L187,397.2z"/>
		<path d="M165.6,397.2l-5.3-8.6h5.2l2.9,5.2l3-5.2h5l-5.2,8.2l5.6,8.6h-5.1l-3.2-5.3l-3.3,5.3h-5.3L165.6,397.2z"/>
		<path d="M144.1,397.2l-5.3-8.6h5.2l2.9,5.2l3-5.2h5l-5.2,8.2l5.6,8.6h-5.1l-3.2-5.3l-3.3,5.3h-5.3L144.1,397.2z"/>
	</g>
</g>
</svg>
