<?xml version="1.0" encoding="UTF-8"?>
<svg width="106px" height="24px" viewBox="0 0 106 24" version="1.1" xmlns="http://www.w3.org/2000/svg" xmlns:xlink="http://www.w3.org/1999/xlink">
    <!-- Generator: Sketch 61.2 (89653) - https://sketch.com -->
    <title>Asset 1</title>
    <desc>Created with Sketch.</desc>
    <g id="Symbols" stroke="none" stroke-width="1" fill="none" fill-rule="evenodd">
        <g id="new_header" transform="translate(-36.000000, -20.000000)" fill="#FF4848" fill-rule="nonzero">
            <g id="Asset-1" transform="translate(36.000000, 20.000000)">
                <polygon id="Path" points="12.7778182 4.03244138 16.1147532 4.03244138 9.63636364 19.8305587 6.6601039 19.8305587 0 4.03244138 3.42228571 4.03244138 8.1441039 15.7383251"></polygon>
                <rect id="Rectangle" x="17.5381818" y="4.03244138" width="3.23781818" height="15.7981173"></rect>
                <polygon id="Path" points="34.9662338 4.03244138 38.3031688 4.03244138 31.8165195 19.8305587 28.8567792 19.8305587 22.1966753 4.03244138 25.618961 4.03244138 30.338026 15.7383251"></polygon>
                <rect id="Rectangle" x="39.7321039" y="4.03244138" width="3.23781818" height="15.7981173"></rect>
                <path d="M55.0098701,3.64638161 C56.4739671,3.62401352 57.9178738,3.99031413 59.1948052,4.70804598 C60.4239642,5.4066315 61.4338169,6.43526144 62.1104935,7.67794864 C62.8185918,8.97874436 63.1798818,10.4404198 63.1594805,11.9218485 C63.1594805,14.2896818 62.3867359,16.265021 60.8412468,17.847866 C59.2957576,19.4307111 57.3492121,20.2212144 55.0016104,20.219376 C53.0758455,20.2559739 51.2053359,19.573827 49.7539221,18.3056226 L49.7539221,23.9641558 L46.5298701,23.9641558 L46.5298701,4.03244138 L48.7131948,4.03244138 L49.3244156,5.96274023 C50.04595,5.21961265 50.9129878,4.63379526 51.8711688,4.24201668 C52.8676971,3.83725341 53.9345773,3.63479029 55.0098701,3.64638161 L55.0098701,3.64638161 Z M51.0534545,15.6307799 C52.0281857,16.6180746 53.3680804,17.156272 54.7538182,17.11711 C56.1318205,17.158293 57.4646747,16.6227154 58.4321558,15.6390526 C60.3701985,13.548446 60.3701985,10.3145541 58.4321558,8.22394745 C57.4646747,7.24028463 56.1318205,6.70470709 54.7538182,6.74589005 C52.6634485,6.76854604 50.7872506,8.03550539 49.9824499,9.96790074 C49.1776493,11.9002961 49.5987898,14.127054 51.0534545,15.6307799 L51.0534545,15.6307799 Z" id="Shape"></path>
                <path d="M77.3249351,19.1384087 C74.6326002,20.575777 71.4023608,20.575777 68.710026,19.1384087 C67.4484355,18.443079 66.4010366,17.4150164 65.6814545,16.1657484 C64.216878,13.5285749 64.216878,10.3206373 65.6814545,7.68346378 C66.3998654,6.43540393 67.4477389,5.4097378 68.710026,4.71907626 C71.4041789,3.28901398 74.6307821,3.28901398 77.3249351,4.71907626 C78.5881205,5.4110109 79.6361227,6.43871146 80.3535065,7.68897892 C81.8181606,10.3241701 81.8181606,13.5305572 80.3535065,16.1657484 C79.6339244,17.4150164 78.5865256,18.443079 77.3249351,19.1384087 Z M69.3405195,15.6583556 C71.4136561,17.6031804 74.6378244,17.6031804 76.710961,15.6583556 C78.635901,13.5509706 78.635901,10.3203022 76.710961,8.21291718 C74.6378244,6.26809236 71.4136561,6.26809236 69.3405195,8.21291718 C67.4155795,10.3203022 67.4155795,13.5509706 69.3405195,15.6583556 L69.3405195,15.6583556 Z" id="Shape"></path>
                <path d="M104.072727,16.8882317 L105.870597,16.8882317 L105.870597,19.8305587 L103.467013,19.8305587 C101.734303,19.8305587 100.36961,19.3277618 99.3729351,18.322168 C98.3762597,17.3165742 97.8770043,15.9433045 97.8751688,14.2023588 L97.8751688,6.81758686 L95.0530909,6.81758686 L95.0530909,6.18886095 L100.543065,0.348328144 L101.093714,0.348328144 L101.093714,4.03244138 L105.774234,4.03244138 L105.774234,6.81758686 L101.126753,6.81758686 L101.126753,13.9459048 C101.126753,14.8889936 101.38097,15.6151537 101.889403,16.1243849 C102.398753,16.6317777 103.128364,16.8882317 104.072727,16.8882317 Z" id="Path"></path>
                <path d="M93.1203117,11.1166382 C92.0447828,10.7243871 90.9308725,10.4470898 89.7971429,10.2893672 C89.3896623,10.2231856 89.0812987,10.1680342 88.8720519,10.123913 C88.6628052,10.0825495 88.392987,10.021883 88.0653506,9.94742857 C87.8100196,9.89518648 87.561519,9.81376495 87.3247273,9.70476243 C87.1405608,9.60879635 86.9638554,9.49910386 86.7961039,9.37661163 C86.6256974,9.25998653 86.490476,9.09880136 86.4051429,8.91058233 C86.3249236,8.71860633 86.2855405,8.51198996 86.2895065,8.30391698 C86.28342,7.73253666 86.5826671,7.20145917 87.0741818,6.91134424 C87.7163223,6.53260662 88.4554866,6.35136128 89.1996883,6.39016355 C89.8156529,6.37117891 90.4285766,6.48399105 90.9975584,6.72107192 L93.0156883,4.57292506 C91.8785284,3.918351 90.5822573,3.59281975 89.2712727,3.63259376 C87.4467879,3.63259376 85.9710476,4.07288574 84.8440519,4.95346969 C83.7474037,5.76086519 83.1140847,7.05420553 83.1480519,8.41697734 C83.1434168,8.88361823 83.2083754,9.34833692 83.3407792,9.79576223 C83.4480167,10.1705945 83.6064499,10.5287889 83.8115844,10.8601842 C84.0169775,11.1716982 84.2806318,11.4404485 84.588,11.6516067 C84.8803709,11.8638592 85.1877026,12.0546303 85.5075844,12.2224236 C85.8611457,12.3926296 86.229858,12.5292674 86.6088831,12.630544 C87.0659221,12.7601498 87.4348571,12.8511496 87.7101818,12.906301 C87.9855065,12.9614523 88.381974,13.0359067 88.8665455,13.1213914 C89.3511169,13.2068761 89.7200519,13.2785729 90.0008831,13.3337243 C90.3237901,13.4027512 90.6427181,13.4892824 90.9562597,13.5929358 C91.2487599,13.6771606 91.5271289,13.8044821 91.7822338,13.9707229 C91.9852439,14.1173904 92.1550579,14.3053248 92.2805714,14.5222368 C92.4216271,14.7546951 92.4941675,15.0223691 92.4898182,15.2943564 C92.4966628,15.9178565 92.1629765,16.495321 91.6197922,16.7999895 C90.1678382,17.5735242 88.4178039,17.5306459 87.0053506,16.6869291 C86.3909802,16.2585201 86.021647,15.5587678 86.0141818,14.8090241 L82.8726229,14.8090241 C82.8630228,16.3245629 83.5306104,17.7650128 84.6926234,18.7358035 C85.8581645,19.7174983 87.3999827,20.2083457 89.3180779,20.2083457 C91.2361732,20.2083457 92.7816623,19.7487508 93.9545455,18.8295609 C95.0995102,17.9602344 95.7531257,16.5892892 95.7083636,15.1509628 C95.7083636,15.0185994 95.7083636,14.8945088 95.6945974,14.7786908 C95.589974,13.0285532 94.7318788,11.807869 93.1203117,11.1166382 Z" id="Path"></path>
            </g>
        </g>
    </g>
</svg>