<?xml version="1.0" encoding="utf-8"?>
<!-- Generator: Adobe Illustrator 21.1.0, SVG Export Plug-In . SVG Version: 6.00 Build 0)  -->
<svg version="1.1" id="Layer_1" xmlns="http://www.w3.org/2000/svg" xmlns:xlink="http://www.w3.org/1999/xlink" x="0px" y="0px"
	 viewBox="0 0 400 218" style="enable-background:new 0 0 400 218;" xml:space="preserve">
<style type="text/css">
	.st0{fill:#FF535B;}
	.st1{fill:#222529;}
</style>
<title>2BB2EE36-70BE-4896-BB5E-B7732C72F497</title>
<desc>Created with sketchtool.</desc>
<path id="Shape" class="st0" d="M137.5,44.6L137.5,44.6c0-0.2,0-0.3,0-0.5l0,0l0,0l0,0l0,0l0,0L95.6,1.3c-0.9-1-2.3-1.4-3.7-1
	L30.8,21.2l0,0h-0.9l0,0l0,0l0,0v0.5l0,0l0,0c0,0.2,0,0.4,0,0.6v63.1c0,0.9,0.4,1.8,1,2.5l39.3,40.9l0,0l0,0l0,0l0,0h1.3h1.2
	l61.2-20.4c1.5-0.5,2.4-1.9,2.4-3.5V44.7L137.5,44.6z M92.2,8l35.1,35.1l-22.5,7.6L69.2,15.7L92.2,8z M69.1,117.6L35.5,84.1V32.9
	l28.7,28.7l4.9,4.9V117.6z M73.3,60.9L55.6,42.8l-17-17l22.9-7.6l35.1,35.1L73.3,60.9z M129.9,102.8l-53.5,18.4V67.6l53.9-18
	L129.9,102.8z"/>
<path id="Path" class="st0" d="M88.5,82.5c3.8-1.4,6.4-4.9,6.7-8.9c0.1-1.7-0.7-3.2-2.1-4.1s-3.1-1.1-4.6-0.4c-3.8,1.5-6.4,5-6.7,9
	c0,1.6,0.8,3.2,2.1,4.1C85.3,83.1,87,83.2,88.5,82.5L88.5,82.5z"/>
<path id="Path_1_" class="st0" d="M118.2,72.6c3.8-1.5,6.4-5,6.7-9c0.1-1.7-0.7-3.2-2.1-4.1c-1.4-0.9-3.1-1.1-4.6-0.4
	c-3.8,1.5-6.4,5-6.7,9c-0.1,1.7,0.7,3.2,2.1,4.1C114.9,73.2,116.7,73.3,118.2,72.6z"/>
<path id="Path_2_" class="st0" d="M103.3,105c10.7-3.9,18.1-13.8,18.9-25.1L84.4,92c-0.4,4.7,1.8,9.3,5.7,12
	C94,106.7,99,107.1,103.3,105z"/>
<polygon id="Path_3_" class="st1" points="48.5,142.9 61.2,142.9 36.6,202.8 25.2,202.8 0,142.9 13,142.9 31.4,187.3 "/>
<rect id="Rectangle" x="66.5" y="142.9" class="st1" width="12.3" height="59.8"/>
<polygon id="Path_4_" class="st1" points="132.7,142.9 145.4,142.9 120.8,202.7 109.6,202.7 83.8,142.9 97.2,142.9 115.2,187.3 "/>
<rect id="Rectangle_1_" x="150.8" y="142.9" class="st1" width="12.3" height="59.8"/>
<path id="Shape_1_" class="st1" d="M206,141.5c5.6-0.1,11.1,1.3,15.9,4.1c4.7,2.6,8.5,6.5,11.1,11.2c2.7,4.9,4,10.4,4,16
	c0.2,8.4-2.9,16.4-8.8,22.4c-11.5,11.2-29.5,12-41.9,1.8v20.9h-12.5v-75h8.3l2.3,7.3c2.7-2.8,6-5,9.6-6.5
	C197.9,142.2,201.9,141.4,206,141.5L206,141.5z M191.1,186.9c3.7,3.8,8.8,5.8,14,5.7c5.2,0.2,10.3-1.8,13.9-5.6
	c7.2-8,7.2-20.1,0-28.1c-3.7-3.7-8.7-5.7-13.9-5.6c-7.9,0.1-15.1,4.8-18.1,12.2c-3.1,7.3-1.4,15.8,4.1,21.5V186.9z"/>
<path id="Shape_2_" class="st1" d="M290.8,200.2c-10.2,5.4-22.5,5.4-32.7,0c-4.8-2.7-8.8-6.6-11.5-11.4c-5.6-10-5.6-22.2,0-32.2
	c2.7-4.7,6.7-8.6,11.5-11.2c10.2-5.4,22.5-5.4,32.7,0c4.8,2.6,8.8,6.5,11.5,11.2c5.6,10,5.6,22.2,0,32.2
	C299.6,193.6,295.6,197.5,290.8,200.2L290.8,200.2z M260.4,187c8,7.1,20,7.1,28,0c7.3-8,7.3-20.3,0-28.3c-8-7.1-20-7.1-28,0
	C253.1,166.7,253.1,179,260.4,187L260.4,187z"/>
<path id="Path_5_" class="st1" d="M392.3,191.6h6.8v11.1H390c-5.7,0.3-11.3-1.8-15.5-5.8c-4-4.2-6-9.8-5.7-15.6v-27.9h-10.5v-2.4
	l20.9-22.1h2.1v13.9h17.8v10.5h-18.1v27c-0.2,3,0.9,6,3.1,8.1c2.1,2.1,5.1,3.2,8.1,3V191.6z"/>
<path id="Path_6_" class="st1" d="M350.7,169.8c-4.1-1.5-8.3-2.5-12.6-3l-3.6-0.6l-3-0.6c-1-0.2-1.9-0.5-2.8-0.9l-2-1.3
	c-0.6-0.4-1.1-1.1-1.5-1.8c-0.2-0.8-0.2-1.5,0-2.3c0-2.1,1.1-4.1,2.9-5.2c2.4-1.4,5.2-2.1,8.1-2c2.3-0.1,4.7,0.4,6.8,1.3l7.6-8.2
	c-4.3-2.5-9.3-3.7-14.2-3.6c-6-0.3-11.9,1.5-16.8,5c-4.1,3.1-6.5,7.9-6.4,13.1c0,1.8,0.2,3.5,0.7,5.2c0.4,1.4,1,2.7,1.8,4
	c0.8,1.2,1.8,2.2,2.9,3c1.1,0.8,2.3,1.6,3.5,2.2c1.3,0.7,2.7,1.2,4.2,1.6l4.2,1l4.4,0.8l4.3,0.8l3.7,0.9c1.1,0.3,2.2,0.8,3.1,1.5
	c0.8,0.6,1.4,1.3,1.9,2.1c0.5,0.9,0.8,1.9,0.7,2.9c0,2.4-1.3,4.6-3.4,5.8c-5.4,3.1-12.1,3.1-17.5,0c-2.3-1.6-3.7-4.3-3.8-7.1h-12.3
	c0,5.7,2.5,11.2,6.9,14.9c5,3.9,11.3,5.9,17.6,5.6c6.3,0.3,12.5-1.5,17.6-5.2c4.4-3.3,6.9-8.5,6.7-13.9c0,0,0-0.9,0-1.4
	C360.8,177.9,356.8,172,350.7,169.8z"/>
</svg>
