<?xml version="1.0" encoding="UTF-8"?>
<svg width="120px" height="65px" viewBox="0 0 120 65" version="1.1" xmlns="http://www.w3.org/2000/svg" xmlns:xlink="http://www.w3.org/1999/xlink">
    <!-- Generator: sketchtool 54.1 (76490) - https://sketchapp.com -->
    <title>A2614BBA-E3F2-4304-B022-EBCFD6B174E7</title>
    <desc>Created with sketchtool.</desc>
    <g id="LSA-Consumer-VD" stroke="none" stroke-width="1" fill="none" fill-rule="evenodd">
        <g id="2.-Choose-input-method-Copy-3" transform="translate(-452.000000, -33.000000)" fill="#FFFFFF" fill-rule="nonzero">
            <g id="header">
                <g id="Group">
                    <g id="main_logo" transform="translate(452.000000, 33.000000)">
                        <path d="M41.0150649,13.442619 C41.0150649,13.4116667 41.0150649,13.377619 41.0150649,13.3466667 C41.0115158,13.2923942 41.003172,13.2385364 40.9901299,13.1857143 C40.9819887,13.1526639 40.9705016,13.1205161 40.9558442,13.0897619 C40.9382884,13.0399692 40.9174645,12.9913729 40.8935065,12.9442857 C40.8755764,12.914217 40.8557987,12.8852734 40.8342857,12.857619 C40.8056469,12.8137204 40.7733241,12.7723032 40.7376623,12.7338095 C40.73145,12.7227936 40.7241407,12.7124242 40.7158442,12.7028571 L28.56,0.631428571 C28.2682536,0.329696535 27.8256257,0.225559752 27.4285714,0.365238095 L9.19168831,6.40404762 L9.15428571,6.42261905 L9.12,6.42261905 C9.09647491,6.43487614 9.07358859,6.44830597 9.05142857,6.46285714 C8.99563186,6.49000761 8.94242731,6.52212305 8.89246753,6.55880952 C8.86083587,6.58171202 8.83064927,6.60652055 8.80207792,6.63309524 C8.75938751,6.67343424 8.71979646,6.71688889 8.68363636,6.76309524 C8.66004439,6.79385005 8.63819249,6.82588361 8.61818182,6.85904762 C8.58724157,6.91018468 8.56115531,6.9640673 8.54025974,7.02 C8.52405647,7.05399595 8.51051003,7.08917906 8.49974026,7.1252381 C8.49974026,7.1252381 8.49974026,7.15 8.49974026,7.16238095 C8.48735775,7.2203866 8.4810902,7.27951486 8.48103896,7.33880952 C8.47927811,7.36147426 8.47927811,7.38424003 8.48103896,7.40690476 L8.48103896,25.5388095 C8.4816289,25.8204055 8.59355952,26.0905081 8.79272727,26.2909524 L20.9485714,38.362381 C20.9617388,38.3695416 20.9742536,38.3778268 20.985974,38.3871429 C21.0159638,38.4183806 21.0482615,38.4473501 21.0825974,38.4738095 C21.1308097,38.502648 21.1807756,38.5284912 21.2322078,38.5511905 C21.2696104,38.5511905 21.3007792,38.5883333 21.3381818,38.6038095 C21.5674434,38.6881997 21.8195696,38.6881997 22.0488312,38.6038095 L40.2950649,32.565 C40.7231743,32.4186458 41.0125671,32.0210166 41.0181818,31.5714286 L41.0181818,13.4580952 C41.0181818,13.4580952 41.0150649,13.4488095 41.0150649,13.442619 Z M27.4877922,2.60928571 L37.9574026,13 L31.1002597,15.2657143 L20.64,4.86261905 L27.4877922,2.60928571 Z M20.6306494,35.0628571 L10.5974026,25.0961905 L10.5974026,9.98833333 L19.1563636,18.4816667 L20.6244156,19.9395238 L20.6306494,35.0628571 Z M21.9927273,18.2928571 L16.5755844,12.9071429 L11.5324675,7.88047619 L18.3896104,5.6147619 L28.8342857,16.0116667 L21.9927273,18.2928571 Z M38.8768831,30.8254762 L22.7688312,36.14 L22.7688312,20.2645238 L38.8706494,14.9345238 L38.8768831,30.8254762 Z" id="Shape"></path>
                        <path d="M26.3906494,24.6783333 C27.5359966,24.2687472 28.3270934,23.2228979 28.4041558,22.0164286 C28.4041558,20.9114286 27.5033766,20.3140476 26.3906494,20.682381 C25.246546,21.0947548 24.4572032,22.1411184 24.3802597,23.347381 C24.3802597,24.452381 25.281039,25.0466667 26.3906494,24.6783333 Z" id="Path"></path>
                        <path d="M35.2488312,21.7471429 C36.3934395,21.3354455 37.183073,20.2886965 37.2592208,19.0821429 C37.2592208,17.9802381 36.3584416,17.3828571 35.2488312,17.7511905 C34.0995414,18.1643547 33.3079628,19.2169251 33.2353247,20.4285714 C33.2353247,21.5211905 34.1361039,22.1154762 35.2488312,21.7471429 Z" id="Path"></path>
                        <path d="M30.8197403,31.2092857 C33.9335065,30.1785714 36.4675325,26.8388095 36.4675325,23.7466667 L25.1844156,27.4795238 C25.1844156,30.5685714 27.7090909,32.24 30.8197403,31.2092857 Z" id="Path"></path>
                        <polygon id="Path" points="14.4654545 42.575 18.2431169 42.575 10.9090909 60.307619 7.53974026 60.307619 0 42.575 3.87428571 42.575 9.21974026 55.7142857"></polygon>
                        <rect id="Rectangle" x="19.8545455" y="42.575" width="3.66545455" height="17.732619"></rect>
                        <polygon id="Path" points="39.5844156 42.575 43.3620779 42.575 36.0187013 60.307619 32.6680519 60.307619 25.1283117 42.575 29.0025974 42.575 34.3449351 55.7142857"></polygon>
                        <rect id="Rectangle" x="44.9797403" y="42.575" width="3.66545455" height="17.732619"></rect>
                        <path d="M62.2753247,42.1416667 C63.932793,42.1165596 65.5674043,42.5277142 67.012987,43.3333333 C68.4044877,44.1174616 69.5477172,45.2720488 70.3137662,46.6669048 C71.1153869,48.1269848 71.5243945,49.7676445 71.5012987,51.4304762 C71.5012987,54.088254 70.6264935,56.3054762 68.8768831,58.0821429 C67.1272727,59.8588095 64.9236364,60.7461111 62.265974,60.7440476 C60.0858628,60.785127 57.9683048,60.0194502 56.3251948,58.5959524 L56.3251948,64.947381 L52.6753247,64.947381 L52.6753247,42.575 L55.147013,42.575 L55.838961,44.7416667 C56.6557925,43.9075421 57.6373447,43.2499905 58.7220779,42.8102381 C59.8502231,42.355911 61.058012,42.128656 62.2753247,42.1416667 L62.2753247,42.1416667 Z M57.7963636,55.5935714 C58.8998329,56.7017618 60.4166948,57.3058622 61.9854545,57.2619048 C63.5454571,57.3081306 65.0543487,56.7069709 66.1496104,55.6028571 C68.3436209,53.2562528 68.3436209,49.6263663 66.1496104,47.2797619 C65.0543487,46.1756482 63.5454571,45.5744884 61.9854545,45.6207143 C59.6189983,45.6461445 57.4950007,47.0682448 56.5839056,49.2372647 C55.6728105,51.4062846 56.1495733,53.9057121 57.7963636,55.5935714 L57.7963636,55.5935714 Z" id="Shape"></path>
                        <path d="M87.5376623,59.5307143 C84.4897361,61.1440904 80.8328613,61.1440904 77.7849351,59.5307143 C76.3567194,58.7502405 75.1709848,57.5962902 74.3563636,56.1940476 C72.6983524,53.2339485 72.6983524,49.6331944 74.3563636,46.6730952 C75.169659,45.2722087 76.3559309,44.1209483 77.7849351,43.3457143 C80.8349196,41.7405389 84.4876778,41.7405389 87.5376623,43.3457143 C88.9676835,44.1223773 90.1541011,45.2759212 90.9662338,46.6792857 C92.6243328,49.6371598 92.6243328,53.2361735 90.9662338,56.1940476 C90.1516126,57.5962902 88.965878,58.7502405 87.5376623,59.5307143 Z M78.4987013,55.6245238 C80.8456485,57.8074952 84.4956502,57.8074952 86.8425974,55.6245238 C89.0217747,53.2590866 89.0217747,49.6328182 86.8425974,47.267381 C84.4956502,45.0844096 80.8456485,45.0844096 78.4987013,47.267381 C76.319524,49.6328182 76.319524,53.2590866 78.4987013,55.6245238 L78.4987013,55.6245238 Z" id="Shape"></path>
                        <path d="M117.818182,57.005 L119.853506,57.005 L119.853506,60.307619 L117.132468,60.307619 C115.170909,60.307619 113.625974,59.743254 112.497662,58.6145238 C111.369351,57.4857937 110.804156,55.9443651 110.802078,53.9902381 L110.802078,45.7011905 L107.607273,45.7011905 L107.607273,44.9954762 L113.822338,38.4397619 L114.445714,38.4397619 L114.445714,42.575 L119.744416,42.575 L119.744416,45.7011905 L114.483117,45.7011905 L114.483117,53.702381 C114.483117,54.7609524 114.770909,55.5760317 115.346494,56.147619 C115.923117,56.7171429 116.749091,57.005 117.818182,57.005 Z" id="Path"></path>
                        <path d="M105.419221,50.5266667 C104.201641,50.0863839 102.94061,49.7751312 101.657143,49.5980952 C101.195844,49.5238095 100.846753,49.4619048 100.60987,49.412381 C100.372987,49.3659524 100.067532,49.2978571 99.6966234,49.2142857 C99.4075693,49.1556465 99.1262479,49.0642548 98.8581818,48.9419048 C98.6496915,48.8341875 98.4496477,48.711063 98.2597403,48.5735714 C98.0668273,48.4426654 97.9137465,48.2617429 97.8171429,48.0504762 C97.7263286,47.8349925 97.6817439,47.6030756 97.6862338,47.3695238 C97.6793434,46.7281772 98.0181137,46.1320685 98.5745455,45.8064286 C99.3014969,45.381314 100.138287,45.1778749 100.980779,45.2214286 C101.678098,45.2001192 102.371973,45.3267454 103.016104,45.5928571 L105.300779,43.1816667 C104.013428,42.4469391 102.545952,42.0815461 101.061818,42.1261905 C98.9963636,42.1261905 97.3257143,42.6203968 96.0498701,43.6088095 C94.8083816,44.5150717 94.0914167,45.9667834 94.1298701,47.4964286 C94.1246228,48.0202103 94.1981609,48.5418344 94.3480519,49.0440476 C94.4694529,49.4647787 94.6488112,49.8668344 94.881039,50.2388095 C95.1135595,50.5884689 95.412036,50.890128 95.76,51.1271429 C96.090986,51.365386 96.4389086,51.5795173 96.801039,51.7678571 C97.201297,51.9589051 97.6187072,52.1122743 98.0477922,52.2259524 C98.5651948,52.3714286 98.9828571,52.4735714 99.2945455,52.5354762 C99.6062338,52.597381 100.055065,52.6809524 100.603636,52.7769048 C101.152208,52.8728571 101.56987,52.9533333 101.887792,53.0152381 C102.253347,53.0927175 102.614398,53.1898445 102.969351,53.3061905 C103.300483,53.4007287 103.615618,53.5436409 103.904416,53.7302381 C104.134238,53.8948653 104.326481,54.1058125 104.468571,54.3492857 C104.628257,54.6102089 104.710378,54.9106598 104.705455,55.2159524 C104.713203,55.915801 104.335445,56.5639768 103.720519,56.9059524 C102.076798,57.7742075 100.095627,57.7260787 98.4966234,56.7790476 C97.8011097,56.2981793 97.3829966,55.5127413 97.3745455,54.6711905 L93.8181818,54.6711905 C93.8071957,56.3723091 94.5629552,57.9891442 95.8784416,59.0788095 C97.1979221,60.1807143 98.9433766,60.7316667 101.114805,60.7316667 C103.286234,60.7316667 105.035844,60.2157937 106.363636,59.1840476 C107.659823,58.2082709 108.399765,56.6694515 108.349091,55.055 C108.349091,54.9064286 108.349091,54.7671429 108.333506,54.6371429 C108.215065,52.6726984 107.243636,51.3025397 105.419221,50.5266667 Z" id="Path"></path>
                    </g>
                </g>
            </g>
        </g>
    </g>
</svg>